<?xml version="1.0" ?>
<!-- Uploaded to: SVG Repo, www.svgrepo.com, Generator: SVG Repo Mixer Tools -->
<svg width="800px" height="800px" viewBox="0 0 91 91" id="Layer_1" version="1.1" xml:space="preserve" xmlns="http://www.w3.org/2000/svg" xmlns:xlink="http://www.w3.org/1999/xlink">
<style type="text/css">
	.st0{fill:#4E7A9E;}
</style>
<g>
<g>
<path class="st0" d="M81,25.9c-0.8-4.1-4.2-6.7-8.4-6.2c-3.1,0.4-5.4,2.2-7.2,4.5c-1.6-2.3-3.7-4.3-6.5-4.9    c-4.3-1.1-8.1,2.4-9.1,6.3c-2.2,8.6,5.7,19,13.2,22.8c0.7,0.9,1.8,1.3,2.9,0.5C72.2,44.3,82.7,34.8,81,25.9z M75.1,32.2    c-2.7,5-6.9,8.5-11,12.1c-3.2-3.4-6.8-6.3-8.7-10.9c-1-2.5-2.1-6.6,0.2-8.7c2.9-2.7,6.2,2.3,7,4.8c0.7,2,3.3,2.4,4.4,0.6    c1.4-2.2,3-5.1,5.9-5.6C77.9,23.6,76.4,29.8,75.1,32.2z"/>
<path class="st0" d="M23.9,48.9c6.4-4.6,16.8-14.1,15.1-23c-0.8-4.1-4.2-6.7-8.4-6.2c-3.1,0.4-5.4,2.2-7.2,4.5    c-1.6-2.3-3.7-4.3-6.5-4.9c-4.3-1.1-8.1,2.4-9.1,6.3c-2.2,8.6,5.7,19,13.2,22.8C21.7,49.2,22.8,49.7,23.9,48.9z M13.5,33.4    c-1-2.5-2.1-6.6,0.2-8.7c2.9-2.7,6.2,2.3,7,4.8c0.7,2,3.3,2.4,4.4,0.6c1.4-2.2,3-5.1,5.9-5.6c5-0.9,3.5,5.3,2.2,7.7    c-2.7,5-6.9,8.5-11,12.1C19,40.9,15.4,38,13.5,33.4z"/>
<path class="st0" d="M64.3,57.4c-7.2-0.5-14.4-0.5-21.6-0.5c-3.8,0-7.5,0.1-11.2,0.4c-1.5,0.1-3,0.2-4.6,0.3    c-3.5-3.3-9.1,2.5-5.6,6.5c4.7,5.4,9.8,10.2,15.4,14.7c2.3,1.9,5,4.5,8.3,4c2.4-0.4,4-2.3,5.6-4c5.2-5.4,10.5-10.9,15.9-16.2    C68.5,60.7,66.9,57.6,64.3,57.4z M48.5,71.9c-1.1,1.1-2.1,2.3-3.3,3.3c-1,0.8-1.2,0.9-2.3,0.1c-1.1-0.8-2.1-2.1-3.1-3.1    c-2.8-2.9-5.6-5.9-8.2-8.9c0.3,0,0.6,0,0.8,0c3.6,0,7.2-0.1,10.8-0.1c4.6,0,9.2,0.1,13.9,0.2C54.2,66.2,51.3,69,48.5,71.9z"/>
</g>
</g>
</svg>